<?xml version="1.0" encoding="UTF-8"?><svg id="Capa_2" xmlns="http://www.w3.org/2000/svg" viewBox="0 0 62.65 56.26"><defs><style>.cls-1{fill:#f9fafb;}.cls-2{fill:none;stroke:#6d28d9;stroke-miterlimit:10;}</style></defs><g id="Capa_1-2"><g><path class="cls-1" d="m51.68,44.77c-.46-10.15-15.67-22.56-20.59-22.18-4.92-.38-20.13,12.03-20.59,22.18-.48,10.66,10.3,11.5,10.3,11.5,2.64,0,5.69-.72,7.9-1.38,1.56-.46,3.22-.46,4.78,0,2.21.65,5.26,1.38,7.9,1.38,0,0,10.78-.84,10.3-11.5Z"/><path class="cls-1" d="m36.48,35.01c-3.47-.51-5.39,3.99-5.39,3.99,0,0-1.92-4.51-5.39-3.99-1.52.23-2.41,1.27-2.94,2.37-.77,1.63-.78,3.51-.19,5.21.85,2.44,2.99,6.34,8.33,9.16.11.06.26.06.37,0,5.33-2.82,7.47-6.72,8.33-9.16.59-1.7.58-3.59-.19-5.21-.52-1.1-1.42-2.15-2.94-2.37Z"/><path class="cls-2" d="m38.06,32.55c-4.31-.64-6.77,3.37-6.96,3.7,0,.01-.02.01-.02,0-.19-.32-2.65-4.34-6.96-3.7-2.07.31-3.24,1.78-3.9,3.29-.91,2.06-.88,4.4-.14,6.53,1.1,3.16,3.87,8.2,10.76,11.84.15.08.34.08.49,0,6.89-3.64,9.66-8.68,10.76-11.84.74-2.13.77-4.46-.14-6.53-.66-1.51-1.83-2.98-3.9-3.29Z"/><path class="cls-1" d="m9.23,32.48s-6.17-.47-8.54-7.12,1.9-9.49,4.27-9.49,8.06,1.42,9.96,8.3c1.9,6.88-5.69,8.3-5.69,8.3Z"/><path class="cls-1" d="m55.62,19.2s-6,1.49-7.24,8.43,3.44,9.04,5.78,8.65,7.72-2.74,8.45-9.84c.73-7.1-6.99-7.25-6.99-7.25Z"/><path class="cls-1" d="m23.22,21.26s-8.74-1.32-9.7-10.9S20.47.07,20.47.07c0,0,6.65-1.18,8.86,6.47s-.48,11.5-.48,11.5c0,0-2.63,3.23-5.63,3.23Z"/><path class="cls-1" d="m42.7,22.58s8.74-1.32,9.7-10.9-6.95-10.3-6.95-10.3c0,0-6.65-1.18-8.86,6.47s.48,11.5.48,11.5c0,0,2.63,3.23,5.63,3.23Z"/></g></g></svg>